<?xml version="1.0" standalone="no"?>
<!DOCTYPE svg PUBLIC "-//W3C//DTD SVG 20010904//EN"
 "http://www.w3.org/TR/2001/REC-SVG-20010904/DTD/svg10.dtd">
 
<svg version="1.0" xmlns="http://www.w3.org/2000/svg"
 width="1000.000000pt" height="1000.000000pt" viewBox="0 0 1000.000000 1000.000000"
 preserveAspectRatio="xMidYMid meet">

<g transform="translate(0.000000,1000.000000) scale(0.100000,-0.100000)"
fill="#ff00a2" stroke="none">
<path d="M4603 9493 l-162 -3 -7 -47 c-4 -26 -43 -272 -88 -547 l-81 -499
-354 -118 -354 -118 -146 141 c-80 78 -259 251 -398 385 -171 166 -256 242
-265 237 -48 -29 -838 -618 -836 -623 2 -4 114 -228 249 -497 l247 -489 -205
-285 c-113 -157 -211 -293 -218 -303 -11 -16 -43 -13 -558 60 -301 42 -549 74
-551 72 -7 -6 -316 -981 -316 -994 0 -5 219 -122 486 -259 267 -137 487 -254
489 -260 2 -6 6 -175 8 -376 l6 -365 -480 -255 c-264 -140 -485 -258 -490
-261 -10 -6 303 -984 320 -1001 3 -3 251 32 551 78 299 46 547 81 551 76 4 -4
104 -139 222 -300 l216 -292 -126 -258 c-69 -141 -178 -366 -243 -499 l-118
-241 430 -308 429 -307 392 391 392 392 350 -111 c193 -61 354 -114 358 -118
6 -6 197 -1054 197 -1085 0 -8 1048 -2 1056 6 1 2 42 248 91 548 l88 544 345
113 c190 62 350 114 356 115 6 2 190 -169 408 -380 262 -254 400 -381 408
-376 25 15 803 587 820 603 16 15 1 49 -231 511 l-249 495 205 285 c112 157
210 293 218 303 12 17 38 14 547 -58 294 -41 542 -75 550 -75 11 0 57 133 171
492 87 271 157 498 157 503 0 6 -219 122 -486 259 -267 138 -488 255 -489 260
-2 6 -6 175 -9 376 l-6 365 490 260 c270 143 490 262 490 265 0 3 -74 228
-164 500 -157 475 -164 495 -187 493 -13 -1 -260 -39 -548 -83 -289 -44 -528
-77 -532 -73 -4 4 -104 140 -223 300 l-215 293 213 438 c117 240 227 465 244
499 l31 61 -430 308 -430 307 -392 -391 -392 -392 -75 24 c-41 14 -199 64
-350 112 -151 47 -279 90 -283 94 -7 6 -196 1050 -197 1083 0 6 -523 6 -897 0z
m860 -651 c49 -279 91 -516 94 -528 4 -18 64 -40 436 -158 238 -75 439 -136
447 -136 8 0 184 169 390 375 l375 375 315 -226 c173 -124 320 -231 327 -237
9 -9 -44 -125 -223 -491 -128 -263 -231 -484 -227 -490 5 -8 466 -637 538
-734 1 -1 225 32 496 74 272 42 512 77 533 78 l39 1 123 -370 c68 -203 124
-374 124 -380 0 -5 -212 -122 -470 -259 l-470 -249 2 -465 3 -465 450 -232
c248 -127 462 -238 476 -246 l26 -14 -120 -375 c-65 -206 -122 -378 -126 -382
-3 -4 -243 26 -531 67 -409 58 -528 71 -537 62 -6 -7 -129 -175 -272 -375
l-261 -363 241 -481 c132 -264 238 -482 236 -485 -3 -2 -148 -110 -323 -239
l-318 -234 -61 58 c-531 515 -707 682 -716 682 -17 0 -863 -280 -871 -288 -3
-4 -43 -234 -88 -512 -45 -278 -84 -515 -87 -528 l-5 -22 -402 0 -401 0 -79
447 c-43 247 -85 484 -93 529 l-15 81 -428 137 c-235 75 -436 136 -446 136
-11 0 -171 -152 -394 -375 l-375 -375 -315 226 c-173 124 -320 231 -327 237
-9 9 41 120 222 491 129 263 232 484 228 490 -4 6 -126 173 -272 371 -145 198
-265 361 -266 363 -2 1 -238 -34 -525 -78 -287 -45 -528 -79 -534 -77 -12 5
-264 753 -256 760 3 2 215 115 473 252 l467 247 -2 466 -3 465 -425 219 c-234
121 -448 231 -476 246 l-51 27 119 375 c66 206 123 378 127 382 4 5 243 -26
531 -66 404 -57 528 -72 537 -63 6 7 129 176 272 376 l260 364 -240 479 c-133
264 -239 481 -237 483 2 2 147 110 323 239 l320 236 60 -58 c33 -32 205 -199
382 -370 177 -172 328 -312 334 -312 27 0 871 283 875 294 2 6 40 236 84 511
44 275 83 510 85 523 l5 22 403 0 402 0 88 -508z"/>
<path fill="#000000" d="M4760 6525 c-175 -29 -327 -80 -479 -161 -408 -216 -690 -589 -794
-1052 -18 -83 -21 -128 -21 -312 0 -184 3 -229 21 -312 31 -138 66 -237 128
-363 210 -430 594 -731 1068 -836 144 -32 416 -37 572 -11 628 108 1116 577
1258 1210 18 83 21 128 21 312 0 184 -3 229 -21 312 -141 630 -630 1102 -1251
1209 -133 22 -381 25 -502 4z m485 -151 c493 -84 923 -457 1080 -938 92 -281
92 -591 0 -872 -134 -409 -457 -738 -867 -883 -208 -73 -484 -96 -696 -57
-580 105 -1035 560 -1138 1136 -22 127 -22 353 0 480 90 505 456 927 943 1086
93 30 221 57 328 68 68 7 256 -4 350 -20z"/>
</g>
</svg>
